<svg width="20" height="21" viewBox="0 0 20 21" fill="none" xmlns="http://www.w3.org/2000/svg">
<g clip-path="url(#clip0_2_634)">
<path d="M3.09079 1.13385L0.677734 2.11694C0.677734 2.11694 0.677734 6.49617 0.677734 8.81984C0.677734 11.1435 3.62715 13.4672 5.50384 13.4672C7.38053 13.4672 10.33 11.1435 10.33 8.81984C10.33 6.49617 10.33 2.11694 10.33 2.11694L7.9169 1.13385" stroke="black"/>
<circle cx="17.5333" cy="7.30053" r="1.96667" stroke="black"/>
<path d="M17.5333 10.5894C17.5333 10.5894 17.5333 13.0813 17.5333 14.8348C17.5333 16.5883 16.4392 17.7881 15.9419 18.2495C15.2456 18.8955 13.8333 19.6339 12.5602 19.6339C11.3666 19.6339 11.5655 19.6339 10.372 19.6339C8.89995 19.6339 7.78597 19.0801 6.79135 18.2495C5.86028 17.472 5.19995 16.2023 5.19995 14.8348C5.19995 13.4672 5.19995 13.0813 5.19995 13.0813" stroke="black"/>
</g>
<defs>
<clipPath id="clip0_2_634">
<rect width="20" height="20" fill="white" transform="translate(0 0.63385)"/>
</clipPath>
</defs>
</svg>
