<svg width="24" height="24" viewBox="0 0 24 24" fill="none" xmlns="http://www.w3.org/2000/svg">
<path d="M2.55 18C1.5 16.2 0.75 14.25 0.75 12C0.75 5.85 5.85 0.75 12 0.75C18.15 0.75 23.25 5.85 23.25 12C23.25 18.15 18.15 23.25 12 23.25C9.75 23.25 7.8 22.65 6 21.45L0.75 23.25L2.55 18Z" stroke="#0253B1" stroke-miterlimit="10" stroke-linecap="round" stroke-linejoin="round"/>
<path d="M10.6635 14.2714V13.7368C10.6635 13.2023 10.7972 12.6677 10.9308 12.2667C11.0645 11.8658 11.4654 11.4648 12 11.0639C12.8019 10.6629 13.2028 10.262 13.3365 9.9947C13.4701 9.7274 13.6038 9.32645 13.6038 8.92551C13.6038 8.52456 13.4701 8.12362 13.2028 7.85632C12.9355 7.58903 12.4009 7.58903 11.8664 7.58903C11.3318 7.58903 10.9308 7.72268 10.5299 7.85632C10.1289 7.98997 9.72798 8.12362 9.32704 8.39092L8.6588 7.05443C9.72798 6.38619 10.7972 6.1189 12 6.1189C13.0692 6.1189 13.8711 6.38619 14.4057 6.92079C14.9403 7.45538 15.3412 8.12362 15.3412 9.05916C15.3412 9.4601 15.3412 9.86105 15.2076 10.1283C15.0739 10.3956 14.9403 10.5293 14.673 10.7966C14.4057 11.0639 14.0047 11.4648 13.4701 11.8658C12.9355 12.2667 12.6682 12.6677 12.5346 12.8013C12.4009 12.935 12.2673 13.4695 12.2673 13.8705V14.2714H10.6635ZM10.3962 16.6771C10.3962 15.8752 10.7972 15.4743 11.5991 15.4743C12 15.4743 12.2673 15.6079 12.4009 15.7416C12.5346 15.8752 12.6682 16.2762 12.6682 16.6771C12.6682 17.0781 12.5346 17.3453 12.4009 17.6126C12.2673 17.8799 11.8664 17.8799 11.5991 17.8799C11.3318 17.8799 10.9308 17.8799 10.6635 17.6126C10.3962 17.3453 10.3962 17.0781 10.3962 16.6771Z" fill="#0253B1"/>
</svg>
