<svg width="25" height="25" viewBox="0 0 25 25" fill="none" xmlns="http://www.w3.org/2000/svg">
<g clip-path="url(#clip0_2_593)">
<path d="M12.4758 6.13385C12.4758 6.13385 7.27583 6.13385 6.47583 6.13385C5.47583 6.13385 5.47583 5.03385 5.47583 5.03385V2.13385C5.47583 2.13385 5.47583 1.13385 6.47583 1.13385C7.97583 1.13385 13.9758 1.13385 15.4758 1.13385C16.4758 1.13385 16.4758 2.13385 16.4758 2.13385V5.13385C16.4758 5.13385 16.4758 6.13385 15.4758 6.13385C15.0758 6.13385 13.9758 6.13385 13.9758 6.13385" stroke="#757575" stroke-miterlimit="10" stroke-linecap="round" stroke-linejoin="round"/>
<path d="M10.9758 24.1339C9.47583 24.1339 7.47583 24.1339 5.97583 24.1339C3.97583 24.1339 3.97583 22.1339 3.97583 22.1339V12.1339C3.97583 8.13385 6.97583 11.1339 6.97583 6.13385" stroke="#757575" stroke-miterlimit="10" stroke-linecap="round" stroke-linejoin="round"/>
<path d="M13.4758 11.6339H4.47583" stroke="#757575" stroke-miterlimit="10" stroke-linecap="round" stroke-linejoin="round"/>
<path d="M11.7619 20.6339H4.47583" stroke="#757575" stroke-miterlimit="10" stroke-linecap="round" stroke-linejoin="round"/>
<path d="M16.9758 24.1339C20.0134 24.1339 22.4758 21.6714 22.4758 18.6339C22.4758 15.5963 20.0134 13.1339 16.9758 13.1339C13.9383 13.1339 11.4758 15.5963 11.4758 18.6339C11.4758 21.6714 13.9383 24.1339 16.9758 24.1339Z" stroke="#757575" stroke-miterlimit="10" stroke-linecap="round" stroke-linejoin="round"/>
<path d="M14.7756 20.8339L19.1756 16.4339" stroke="#757575" stroke-miterlimit="10" stroke-linecap="round" stroke-linejoin="round"/>
<path d="M7.47583 1.43385V5.73385" stroke="#757575" stroke-miterlimit="10" stroke-linecap="round" stroke-linejoin="round"/>
<path d="M9.47583 1.43385V5.83385" stroke="#757575" stroke-miterlimit="10" stroke-linecap="round" stroke-linejoin="round"/>
<path d="M11.4758 1.43385V5.73385" stroke="#757575" stroke-miterlimit="10" stroke-linecap="round" stroke-linejoin="round"/>
<path d="M17.9758 12.9999V12.1339C17.9758 8.13385 14.9758 11.1339 14.9758 6.13385" stroke="#757575" stroke-miterlimit="10" stroke-linecap="round" stroke-linejoin="round"/>
<path d="M10.9758 24.1339C12.4758 24.1339 15.3097 24.1339 16.8097 24.1339" stroke="#757575" stroke-miterlimit="10" stroke-linecap="round" stroke-linejoin="round"/>
<path d="M13.4758 11.6339L13.4758 14.1339" stroke="#757575" stroke-linecap="round"/>
</g>
<defs>
<clipPath id="clip0_2_593">
<rect width="24" height="24" fill="white" transform="translate(0.791992 0.63385)"/>
</clipPath>
</defs>
</svg>
