<svg width="66" height="49" viewBox="0 0 66 49" fill="none" xmlns="http://www.w3.org/2000/svg">
<path d="M3.40528 37.126C3.88705 37.126 4.30046 37.2253 4.64551 37.4239C4.99056 37.6225 5.25586 37.904 5.44141 38.2686C5.62696 38.6332 5.71973 39.0694 5.71973 39.5772V40.1924H2.11133C2.12435 40.7165 2.26433 41.1202 2.53125 41.4034C2.80144 41.6866 3.17904 41.8282 3.66407 41.8282C4.00912 41.8282 4.31836 41.7956 4.5918 41.7305C4.86849 41.6622 5.15332 41.5629 5.44629 41.4327V42.3653C5.17611 42.4922 4.90105 42.585 4.6211 42.6436C4.34115 42.7022 4.00586 42.7315 3.61524 42.7315C3.08464 42.7315 2.61752 42.629 2.21387 42.4239C1.81348 42.2156 1.49935 41.9063 1.27149 41.4962C1.04688 41.086 0.934574 40.5766 0.934574 39.9678C0.934574 39.3624 1.03711 38.848 1.24219 38.4249C1.44727 38.0017 1.73536 37.6794 2.10645 37.4581C2.47754 37.2367 2.91049 37.126 3.40528 37.126ZM3.40528 37.9903C3.04395 37.9903 2.75098 38.1075 2.52637 38.3419C2.30502 38.5762 2.17481 38.9197 2.13575 39.3721H4.59668C4.59343 39.1019 4.54785 38.8627 4.45996 38.6544C4.37533 38.446 4.24512 38.2833 4.06934 38.1661C3.89681 38.0489 3.67546 37.9903 3.40528 37.9903ZM6.54493 40.4366V39.4649H9.06446V40.4366H6.54493ZM15.7979 42.6338H14.4502L12.2285 39.3917L11.5254 39.963V42.6338H10.3535V35.4952H11.5254V38.9083C11.6686 38.7325 11.8135 38.5567 11.96 38.3809C12.1064 38.2051 12.2529 38.0294 12.3994 37.8536L14.4111 35.4952H15.7344L13.0684 38.6202L15.7979 42.6338ZM21.4082 39.919C21.4082 40.3682 21.3496 40.767 21.2324 41.1153C21.1152 41.4636 20.9443 41.7582 20.7197 41.9991C20.4951 42.2367 20.2249 42.419 19.9092 42.546C19.5934 42.6697 19.237 42.7315 18.8398 42.7315C18.4688 42.7315 18.1286 42.6697 17.8193 42.546C17.5101 42.419 17.2415 42.2367 17.0137 41.9991C16.7891 41.7582 16.6149 41.4636 16.4912 41.1153C16.3675 40.767 16.3057 40.3682 16.3057 39.919C16.3057 39.3233 16.4082 38.8187 16.6133 38.4053C16.8216 37.9887 17.1178 37.6713 17.502 37.4532C17.8861 37.2351 18.3434 37.126 18.874 37.126C19.3721 37.126 19.8115 37.2351 20.1924 37.4532C20.5732 37.6713 20.8711 37.9887 21.0859 38.4053C21.3008 38.822 21.4082 39.3266 21.4082 39.919ZM17.4873 39.919C17.4873 40.3129 17.5345 40.6498 17.6289 40.9297C17.7266 41.2097 17.8763 41.4245 18.0781 41.5743C18.28 41.7208 18.5404 41.794 18.8594 41.794C19.1784 41.794 19.4388 41.7208 19.6406 41.5743C19.8425 41.4245 19.9906 41.2097 20.085 40.9297C20.1794 40.6498 20.2266 40.3129 20.2266 39.919C20.2266 39.5251 20.1794 39.1915 20.085 38.918C19.9906 38.6413 19.8425 38.4314 19.6406 38.2881C19.4388 38.1417 19.1768 38.0684 18.8545 38.0684C18.3792 38.0684 18.0326 38.2279 17.8145 38.5469C17.5964 38.8659 17.4873 39.3233 17.4873 39.919ZM25.5439 37.126C26.1527 37.126 26.6263 37.2839 26.9648 37.5997C27.3066 37.9122 27.4775 38.4151 27.4775 39.1085V42.6338H26.3301V39.3233C26.3301 38.9034 26.2438 38.5893 26.0713 38.3809C25.8988 38.1693 25.6318 38.0635 25.2705 38.0635C24.7464 38.0635 24.3818 38.2247 24.1768 38.5469C23.9749 38.8692 23.874 39.3363 23.874 39.9483V42.6338H22.7266V37.2286H23.6201L23.7813 37.961H23.8447C23.9619 37.7722 24.1068 37.6176 24.2793 37.4971C24.4551 37.3734 24.6504 37.2807 24.8652 37.2188C25.0833 37.157 25.3096 37.126 25.5439 37.126ZM32.7168 41.0909C32.7168 41.4457 32.6305 41.7452 32.458 41.9893C32.2855 42.2335 32.0332 42.419 31.7012 42.546C31.3724 42.6697 30.9688 42.7315 30.4902 42.7315C30.1126 42.7315 29.7871 42.7038 29.5137 42.6485C29.2435 42.5964 28.988 42.515 28.7471 42.4044V41.4131C29.0042 41.5336 29.2923 41.6378 29.6113 41.7256C29.9336 41.8135 30.238 41.8575 30.5244 41.8575C30.902 41.8575 31.1738 41.7989 31.3398 41.6817C31.5059 41.5613 31.5889 41.4018 31.5889 41.2032C31.5889 41.086 31.5547 40.9818 31.4863 40.8907C31.4212 40.7963 31.2975 40.7003 31.1152 40.6026C30.9362 40.5017 30.6725 40.3812 30.3242 40.2413C29.9824 40.1046 29.6943 39.9678 29.46 39.8311C29.2256 39.6944 29.0482 39.53 28.9277 39.338C28.8073 39.1426 28.7471 38.8936 28.7471 38.5909C28.7471 38.1124 28.9359 37.7494 29.3135 37.502C29.6943 37.2514 30.1973 37.126 30.8223 37.126C31.1543 37.126 31.4668 37.1602 31.7598 37.2286C32.056 37.2937 32.3457 37.3897 32.6289 37.5167L32.2676 38.3809C32.0234 38.2735 31.7777 38.1856 31.5303 38.1172C31.2861 38.0456 31.0371 38.0098 30.7832 38.0098C30.487 38.0098 30.2607 38.0554 30.1045 38.1465C29.9515 38.2377 29.875 38.3679 29.875 38.5372C29.875 38.6641 29.9124 38.7715 29.9873 38.8594C30.0622 38.9473 30.1908 39.0352 30.373 39.1231C30.5586 39.211 30.8158 39.32 31.1445 39.4503C31.4668 39.574 31.7451 39.7042 31.9795 39.8409C32.2171 39.9743 32.3994 40.1387 32.5264 40.334C32.6533 40.5294 32.7168 40.7816 32.7168 41.0909ZM38.6689 37.2286V42.6338H37.7656L37.6094 41.9063H37.5459C37.432 42.0919 37.2871 42.2465 37.1113 42.3702C36.9355 42.4906 36.7402 42.5801 36.5254 42.6387C36.3105 42.7006 36.0843 42.7315 35.8467 42.7315C35.4398 42.7315 35.0915 42.6631 34.8018 42.5264C34.5153 42.3865 34.2956 42.1716 34.1426 41.8819C33.9896 41.5922 33.9131 41.2178 33.9131 40.7588V37.2286H35.0654V40.544C35.0654 40.9639 35.1501 41.2781 35.3193 41.4864C35.4919 41.6947 35.7588 41.7989 36.1201 41.7989C36.4684 41.7989 36.7451 41.7273 36.9502 41.584C37.1553 41.4408 37.3001 41.2292 37.3848 40.9493C37.4727 40.6693 37.5166 40.3259 37.5166 39.919V37.2286H38.6689ZM41.4668 42.6338H40.3145V35.0362H41.4668V42.6338ZM45.1191 41.8038C45.2689 41.8038 45.417 41.7908 45.5635 41.7647C45.71 41.7354 45.8434 41.7012 45.9639 41.6622V42.5313C45.8369 42.5866 45.6725 42.6338 45.4707 42.6729C45.2689 42.712 45.0589 42.7315 44.8408 42.7315C44.5348 42.7315 44.2598 42.681 44.0156 42.5801C43.7715 42.476 43.5778 42.2986 43.4346 42.0479C43.2913 41.7973 43.2197 41.4506 43.2197 41.0079V38.1026H42.4824V37.5899L43.2734 37.1846L43.6494 36.0274H44.3721V37.2286H45.9199V38.1026H44.3721V40.9932C44.3721 41.2667 44.4404 41.4701 44.5771 41.6036C44.7139 41.737 44.8945 41.8038 45.1191 41.8038ZM49.1816 37.126C49.8652 37.126 50.3812 37.2774 50.7295 37.5801C51.0811 37.8829 51.2568 38.3549 51.2568 38.9962V42.6338H50.4414L50.2217 41.8672H50.1826C50.0296 42.0626 49.8717 42.2237 49.709 42.3506C49.5462 42.4776 49.3574 42.572 49.1426 42.6338C48.931 42.699 48.6722 42.7315 48.3662 42.7315C48.0439 42.7315 47.7559 42.6729 47.502 42.5557C47.248 42.4353 47.0479 42.253 46.9014 42.0088C46.7549 41.7647 46.6816 41.4555 46.6816 41.0811C46.6816 40.5245 46.8883 40.1062 47.3018 39.8262C47.7184 39.5463 48.3467 39.3917 49.1865 39.3624L50.124 39.3282V39.045C50.124 38.6706 50.0361 38.4037 49.8604 38.2442C49.6878 38.0847 49.4437 38.0049 49.1279 38.0049C48.8577 38.0049 48.5957 38.044 48.3418 38.1221C48.0879 38.2003 47.8405 38.2963 47.5996 38.4102L47.2285 37.5997C47.4922 37.4597 47.7917 37.3458 48.127 37.2579C48.4655 37.17 48.8171 37.126 49.1816 37.126ZM50.1191 40.0508L49.4209 40.0753C48.848 40.0948 48.446 40.1924 48.2148 40.3682C47.9837 40.544 47.8682 40.7849 47.8682 41.0909C47.8682 41.3578 47.9479 41.5531 48.1074 41.6768C48.2669 41.7973 48.4769 41.8575 48.7373 41.8575C49.1344 41.8575 49.4632 41.7452 49.7236 41.5206C49.9873 41.2927 50.1191 40.959 50.1191 40.5196V40.0508ZM55.041 42.7315C54.5299 42.7315 54.0872 42.6322 53.7129 42.4337C53.3385 42.2351 53.0505 41.9307 52.8486 41.5206C52.6468 41.1104 52.5459 40.5896 52.5459 39.9581C52.5459 39.3005 52.6566 38.7634 52.8779 38.3467C53.0993 37.9301 53.4053 37.6225 53.7959 37.4239C54.1898 37.2253 54.6406 37.126 55.1484 37.126C55.4707 37.126 55.762 37.1586 56.0225 37.2237C56.2861 37.2855 56.5091 37.362 56.6914 37.4532L56.3496 38.3712C56.151 38.2898 55.9476 38.2214 55.7393 38.1661C55.5309 38.1107 55.3307 38.0831 55.1387 38.0831C54.8229 38.0831 54.5592 38.1531 54.3477 38.293C54.1393 38.433 53.9831 38.6413 53.8789 38.918C53.778 39.1947 53.7275 39.5381 53.7275 39.9483C53.7275 40.3454 53.7796 40.6807 53.8838 40.9542C53.988 41.2243 54.1426 41.4294 54.3477 41.5694C54.5527 41.7061 54.805 41.7745 55.1045 41.7745C55.4007 41.7745 55.666 41.7387 55.9004 41.6671C56.1348 41.5954 56.3561 41.5027 56.5645 41.3887V42.3848C56.3594 42.502 56.1396 42.5883 55.9053 42.6436C55.6709 42.7022 55.3828 42.7315 55.041 42.7315ZM57.292 45.0362C57.1227 45.0362 56.9616 45.0232 56.8086 44.9971C56.6556 44.9743 56.527 44.9467 56.4229 44.9141V43.9962C56.5335 44.0287 56.641 44.0531 56.7451 44.0694C56.8493 44.0857 56.9681 44.0938 57.1016 44.0938C57.3132 44.0938 57.4873 44.0352 57.624 43.918C57.764 43.8008 57.834 43.5779 57.834 43.2491V37.2286H58.9814V43.3516C58.9814 43.6804 58.9229 43.9717 58.8057 44.2256C58.6917 44.4796 58.5094 44.6781 58.2588 44.8213C58.0114 44.9646 57.6891 45.0362 57.292 45.0362ZM57.7656 35.7881C57.7656 35.557 57.8275 35.3943 57.9512 35.2999C58.0781 35.2055 58.2327 35.1583 58.415 35.1583C58.5908 35.1583 58.7422 35.2055 58.8691 35.2999C58.9993 35.3943 59.0645 35.557 59.0645 35.7881C59.0645 36.016 58.9993 36.1788 58.8691 36.2764C58.7422 36.3708 58.5908 36.418 58.415 36.418C58.2327 36.418 58.0781 36.3708 57.9512 36.2764C57.8275 36.1788 57.7656 36.016 57.7656 35.7881ZM62.7803 37.126C63.262 37.126 63.6755 37.2253 64.0205 37.4239C64.3656 37.6225 64.6309 37.904 64.8164 38.2686C65.002 38.6332 65.0947 39.0694 65.0947 39.5772V40.1924H61.4863C61.4993 40.7165 61.6393 41.1202 61.9062 41.4034C62.1764 41.6866 62.554 41.8282 63.0391 41.8282C63.3841 41.8282 63.6934 41.7956 63.9668 41.7305C64.2435 41.6622 64.5283 41.5629 64.8213 41.4327V42.3653C64.5511 42.4922 64.276 42.585 63.9961 42.6436C63.7161 42.7022 63.3809 42.7315 62.9902 42.7315C62.4596 42.7315 61.9925 42.629 61.5889 42.4239C61.1885 42.2156 60.8743 41.9063 60.6465 41.4962C60.4219 41.086 60.3096 40.5766 60.3096 39.9678C60.3096 39.3624 60.4121 38.848 60.6172 38.4249C60.8223 38.0017 61.1104 37.6794 61.4814 37.4581C61.8525 37.2367 62.2855 37.126 62.7803 37.126ZM62.7803 37.9903C62.4189 37.9903 62.126 38.1075 61.9014 38.3419C61.68 38.5762 61.5498 38.9197 61.5107 39.3721H63.9717C63.9684 39.1019 63.9229 38.8627 63.835 38.6544C63.7503 38.446 63.6201 38.2833 63.4443 38.1661C63.2718 38.0489 63.0505 37.9903 62.7803 37.9903Z" fill="#757575"/>
<g clip-path="url(#clip0_2_639)">
<path d="M36.5 10.6339H43.0099C43.9339 10.6339 44.5499 11.1527 44.5499 11.931V26.2535C44.5499 27.0318 43.9339 27.5506 43.0099 27.5506H22.99C22.066 27.5506 21.45 27.0318 21.45 26.2535V11.931C21.45 11.1527 22.066 10.6339 22.99 10.6339H29.5" stroke="#757575" stroke-miterlimit="10" stroke-linecap="round" stroke-linejoin="round"/>
<path d="M44.5499 25.0699H21.45" stroke="#757575" stroke-miterlimit="10" stroke-linecap="round" stroke-linejoin="round"/>
<path d="M36.0935 20.5908C36.6505 20.5908 37.1007 21.0441 37.1007 21.6013V22.1788V22.7562H37.9636V22.1788C37.9636 21.3039 37.2536 20.5908 36.3792 20.5908H36.0935Z" fill="#757575"/>
<path d="M35.805 20.5908V21.4569H36.3822C36.6506 21.4569 36.8843 21.6042 37.0084 21.8207V21.6013C37.0084 21.0441 36.5986 20.5908 36.0965 20.5908H35.805Z" fill="#757575"/>
<path d="M37.1007 19.2915V19.869C37.1007 20.7438 37.8106 21.457 38.6851 21.457H38.9736C38.4167 21.457 37.9665 21.0037 37.9665 20.4464V19.869V19.2915H37.1007Z" fill="#757575"/>
<path d="M38.0531 20.4551C38.0617 21.0124 38.4773 21.4599 38.9794 21.4512L39.268 21.4484L39.2565 20.5822L38.6793 20.5908C38.4109 20.5937 38.1771 20.4494 38.0502 20.2357L38.0531 20.4551Z" fill="#757575"/>
<path d="M32.4999 24.6338L30.6103 16.8662" stroke="#757575" stroke-width="0.5" stroke-miterlimit="10" stroke-linecap="round" stroke-linejoin="round"/>
<path d="M33.4999 24.6337L35.4585 16.5197" stroke="#757575" stroke-width="0.5" stroke-miterlimit="10" stroke-linecap="round" stroke-linejoin="round"/>
<path d="M30.6103 16.5197C30.6103 16.5197 31.3029 17.9056 33.0344 17.9056C34.7659 17.9056 35.4585 16.5197 35.4585 16.5197" stroke="#757575" stroke-width="0.5" stroke-miterlimit="10" stroke-linecap="round" stroke-linejoin="round"/>
<path d="M29.9177 12.3621C30.264 12.3621 30.6103 11.6692 30.6103 11.3227C30.6103 10.2833 31.6492 9.93684 31.6492 9.93684C31.6492 9.93684 32.6881 10.9762 34.4196 10.9762C35.8048 10.9762 35.4585 12.3621 36.1511 12.3621" stroke="#757575" stroke-width="0.5" stroke-miterlimit="10" stroke-linecap="round" stroke-linejoin="round"/>
<path d="M40.9998 24.6339C40.9998 24.6339 41.2764 19.6379 39.8912 18.5985C38.9215 17.8363 35.3893 16.5197 35.3893 16.5197L35.1122 15.4803C35.32 15.1339 35.4585 14.7874 35.597 14.1637C35.8048 14.1637 36.0819 13.8173 36.2204 13.3322C36.3589 12.7779 36.3589 12.3621 36.1511 12.2928C36.1511 12.2928 36.3589 11.5999 36.2896 10.4912C36.2896 8.48168 34.9737 7.1651 32.9652 7.1651C30.9566 7.1651 31.0259 8.06592 30.5411 8.48168C30.4718 8.55097 30.1948 8.82814 30.1948 8.82814L30.0562 9.10532L29.9177 9.3132C29.9177 9.3132 29.8485 9.52108 29.7792 9.86755C29.5714 11.3227 29.9177 12.2928 29.9177 12.2928C29.7099 12.3621 29.7099 12.8472 29.8485 13.3322C29.987 13.8173 30.264 14.1637 30.4718 14.1637C30.6103 14.7874 30.7488 15.1339 30.9566 15.4803L30.6103 16.5197C30.6103 16.5197 27.1473 17.8363 26.1084 18.5985C24.7232 19.6379 24.9999 24.6339 24.9999 24.6339" stroke="#757575" stroke-miterlimit="10" stroke-linecap="round" stroke-linejoin="round"/>
<path d="M33 27.5506V29.9291" stroke="#757575" stroke-miterlimit="10" stroke-linecap="round" stroke-linejoin="round"/>
<path d="M39 30.1339H27" stroke="#757575" stroke-linecap="round" stroke-linejoin="round"/>
</g>
<defs>
<clipPath id="clip0_2_639">
<rect width="24" height="24" fill="white" transform="translate(21 6.63385)"/>
</clipPath>
</defs>
</svg>
