<svg width="24" height="25" viewBox="0 0 24 25" fill="none" xmlns="http://www.w3.org/2000/svg">
<g clip-path="url(#clip0_2_644)">
<path d="M15.5 4.63385H22.0099C22.9339 4.63385 23.5499 5.15269 23.5499 5.93096V20.2535C23.5499 21.0318 22.9339 21.5506 22.0099 21.5506H1.98995C1.06595 21.5506 0.449951 21.0318 0.449951 20.2535V5.93096C0.449951 5.15269 1.06595 4.63385 1.98995 4.63385H8.5" stroke="#757575" stroke-miterlimit="10" stroke-linecap="round" stroke-linejoin="round"/>
<path d="M23.5499 19.0699H0.449951" stroke="#757575" stroke-miterlimit="10" stroke-linecap="round" stroke-linejoin="round"/>
<path d="M15.0935 14.5908C15.6505 14.5908 16.1007 15.0441 16.1007 15.6013V16.1788V16.7562H16.9636V16.1788C16.9636 15.3039 16.2536 14.5908 15.3792 14.5908H15.0935Z" fill="#757575"/>
<path d="M14.805 14.5908V15.4569H15.3822C15.6506 15.4569 15.8843 15.6042 16.0084 15.8207V15.6013C16.0084 15.0441 15.5986 14.5908 15.0965 14.5908H14.805Z" fill="#757575"/>
<path d="M16.1007 13.2915V13.869C16.1007 14.7438 16.8106 15.457 17.6851 15.457H17.9736C17.4167 15.457 16.9665 15.0037 16.9665 14.4464V13.869V13.2915H16.1007Z" fill="#757575"/>
<path d="M17.0531 14.4551C17.0617 15.0124 17.4773 15.4599 17.9794 15.4512L18.268 15.4484L18.2565 14.5822L17.6793 14.5908C17.4109 14.5937 17.1771 14.4494 17.0502 14.2357L17.0531 14.4551Z" fill="#757575"/>
<path d="M11.4999 18.6338L9.61029 10.8662" stroke="#757575" stroke-width="0.5" stroke-miterlimit="10" stroke-linecap="round" stroke-linejoin="round"/>
<path d="M12.4999 18.6337L14.4585 10.5197" stroke="#757575" stroke-width="0.5" stroke-miterlimit="10" stroke-linecap="round" stroke-linejoin="round"/>
<path d="M9.61029 10.5197C9.61029 10.5197 10.3029 11.9056 12.0344 11.9056C13.7659 11.9056 14.4585 10.5197 14.4585 10.5197" stroke="#757575" stroke-width="0.5" stroke-miterlimit="10" stroke-linecap="round" stroke-linejoin="round"/>
<path d="M8.91772 6.36212C9.26402 6.36212 9.61032 5.66918 9.61032 5.32271C9.61032 4.28331 10.6492 3.93684 10.6492 3.93684C10.6492 3.93684 11.6881 4.97625 13.4196 4.97625C14.8048 4.97625 14.4585 6.36212 15.1511 6.36212" stroke="#757575" stroke-width="0.5" stroke-miterlimit="10" stroke-linecap="round" stroke-linejoin="round"/>
<path d="M19.9998 18.6339C19.9998 18.6339 20.2764 13.6379 18.8912 12.5985C17.9215 11.8363 14.3893 10.5197 14.3893 10.5197L14.1122 9.48032C14.32 9.13385 14.4585 8.78738 14.597 8.16374C14.8048 8.16374 15.0819 7.81727 15.2204 7.33222C15.3589 6.77787 15.3589 6.36211 15.1511 6.29282C15.1511 6.29282 15.3589 5.59988 15.2896 4.49119C15.2896 2.48168 13.9737 1.1651 11.9652 1.1651C9.95662 1.1651 10.0259 2.06592 9.54106 2.48168C9.4718 2.55097 9.19476 2.82814 9.19476 2.82814L9.05624 3.10532L8.91772 3.3132C8.91772 3.3132 8.84846 3.52108 8.7792 3.86755C8.57142 5.32271 8.91772 6.29282 8.91772 6.29282C8.70994 6.36211 8.70994 6.84717 8.84846 7.33222C8.98698 7.81727 9.26402 8.16374 9.4718 8.16374C9.61032 8.78738 9.74884 9.13385 9.95662 9.48032L9.61032 10.5197C9.61032 10.5197 6.14732 11.8363 5.10842 12.5985C3.72322 13.6379 3.9999 18.6339 3.9999 18.6339" stroke="#757575" stroke-miterlimit="10" stroke-linecap="round" stroke-linejoin="round"/>
<path d="M12 21.5506V23.9291" stroke="#757575" stroke-miterlimit="10" stroke-linecap="round" stroke-linejoin="round"/>
<path d="M18 24.1339H6" stroke="#757575" stroke-linecap="round" stroke-linejoin="round"/>
</g>
<defs>
<clipPath id="clip0_2_644">
<rect width="24" height="24" fill="white" transform="translate(0 0.63385)"/>
</clipPath>
</defs>
</svg>
