<svg width="16" height="17" viewBox="0 0 16 17" fill="none" xmlns="http://www.w3.org/2000/svg">
<path d="M8.78922 4.16665C8.78922 4.16665 4.32256 4.16665 3.78923 4.16665C3.12256 4.16665 3.12256 3.43331 3.12256 3.43331V1.49998C3.12256 1.49998 3.12256 0.833313 3.78923 0.833313C4.78923 0.833313 8.78922 0.833313 9.78922 0.833313C10.4559 0.833313 10.4559 1.49998 10.4559 1.49998V3.49998C10.4559 3.49998 10.4559 4.16665 9.78922 4.16665C9.52256 4.16665 8.78922 4.16665 8.78922 4.16665Z" stroke="#0253B1" stroke-miterlimit="10" stroke-linecap="round" stroke-linejoin="round"/>
<path d="M6.78922 16.1667C5.78923 16.1667 4.45589 16.1667 3.45589 16.1667C2.12256 16.1667 2.12256 14.8333 2.12256 14.8333V8.16666C2.12256 5.49999 4.12256 7.49999 4.12256 4.16666" stroke="#0253B1" stroke-miterlimit="10" stroke-linecap="round" stroke-linejoin="round"/>
<path d="M8.45587 7.83331L2.45587 7.83331" stroke="#0253B1" stroke-miterlimit="10" stroke-linecap="round" stroke-linejoin="round"/>
<path d="M7.31326 13.8333H2.45587" stroke="#0253B1" stroke-miterlimit="10" stroke-linecap="round" stroke-linejoin="round"/>
<path d="M10.7892 16.1666C12.8143 16.1666 14.4559 14.525 14.4559 12.5C14.4559 10.4749 12.8143 8.83331 10.7892 8.83331C8.76418 8.83331 7.12256 10.4749 7.12256 12.5C7.12256 14.525 8.76418 16.1666 10.7892 16.1666Z" stroke="#0253B1" stroke-miterlimit="10" stroke-linecap="round" stroke-linejoin="round"/>
<path d="M9.62933 13.6598L11.9489 11.3402" stroke="#0253B1" stroke-miterlimit="10" stroke-linecap="round" stroke-linejoin="round"/>
<path d="M11.4559 8.74403V8.16666C11.4559 5.49999 9.45587 7.49999 9.45587 4.16666" stroke="#0253B1" stroke-miterlimit="10" stroke-linecap="round" stroke-linejoin="round"/>
<path d="M6.78925 16.1667C7.78925 16.1667 9.6785 16.1667 10.6785 16.1667" stroke="#0253B1" stroke-miterlimit="10" stroke-linecap="round" stroke-linejoin="round"/>
<path d="M8.45587 7.83331L8.45587 9.49998" stroke="#0253B1" stroke-linecap="round"/>
</svg>
