<svg width="32" height="27" viewBox="0 0 32 27" fill="none" xmlns="http://www.w3.org/2000/svg">
<path fill-rule="evenodd" clip-rule="evenodd" d="M4 8.00012H20C21.0303 8.00012 21.8787 8.7792 21.9881 9.78039L15.1839 15.6126C15.1779 15.6175 15.1719 15.6226 15.1661 15.6278L12.0001 18.3416L8.83109 15.6253C8.8271 15.6218 8.82306 15.6183 8.81897 15.6149L2.01193 9.78038C2.12135 8.7792 2.96969 8.00012 4 8.00012ZM7.70725 15.9791L2 11.0872V20.0001C2 20.1182 2.01023 20.2339 2.02986 20.3463L7.70725 15.9791ZM2.4604 21.2768C2.82726 21.7187 3.38077 22.0001 4 22.0001H20C20.6192 22.0001 21.1727 21.7187 21.5396 21.2768L15.5171 16.6441L12.3255 19.3797C12.1382 19.5402 11.8619 19.5402 11.6747 19.3798L8.48298 16.644L2.4604 21.2768ZM16.2928 15.9792L21.9701 20.3463C21.9898 20.2339 22 20.1182 22 20.0001V11.0872L16.2928 15.9792ZM1 9.99696V10.0027V20.0001C1 21.657 2.34315 23.0001 4 23.0001H20C21.6569 23.0001 23 21.657 23 20.0001V10.0032L23 9.99618C22.9979 8.34114 21.6555 7.00012 20 7.00012H4C2.3442 7.00012 1.00171 8.34156 1 9.99696Z" fill="#0253B1"/>
<circle cx="24" cy="8" r="7.5" fill="#37C86B" stroke="white"/>
<path d="M22.2905 11H21.2534V6.86475C21.2534 6.72705 21.2549 6.58936 21.2578 6.45166C21.2607 6.31396 21.2637 6.1792 21.2666 6.04736C21.2725 5.91553 21.2798 5.78955 21.2886 5.66943C21.2271 5.73682 21.1509 5.81006 21.0601 5.88916C20.9722 5.96826 20.8784 6.05029 20.7788 6.13525L20.0405 6.72412L19.522 6.06934L21.4292 4.5752H22.2905V11ZM25.1382 11L27.6606 5.48047H24.3252V4.5752H28.7725V5.28271L26.25 11H25.1382Z" fill="black"/>
</svg>
