<svg width="24" height="24" viewBox="0 0 24 24" fill="none" xmlns="http://www.w3.org/2000/svg">
<path fill-rule="evenodd" clip-rule="evenodd" d="M4 5.00012H20C21.0303 5.00012 21.8787 5.7792 21.9881 6.78039L15.1839 12.6126C15.1779 12.6175 15.1719 12.6226 15.1661 12.6278L12.0001 15.3416L8.83109 12.6253C8.8271 12.6218 8.82306 12.6183 8.81897 12.6149L2.01193 6.78038C2.12135 5.7792 2.96969 5.00012 4 5.00012ZM7.70725 12.9791L2 8.08723V17.0001C2 17.1182 2.01023 17.2339 2.02986 17.3463L7.70725 12.9791ZM2.4604 18.2768C2.82726 18.7187 3.38077 19.0001 4 19.0001H20C20.6192 19.0001 21.1727 18.7187 21.5396 18.2768L15.5171 13.6441L12.3255 16.3797C12.1382 16.5402 11.8619 16.5402 11.6747 16.3798L8.48298 13.644L2.4604 18.2768ZM16.2928 12.9792L21.9701 17.3463C21.9898 17.2339 22 17.1182 22 17.0001V8.08724L16.2928 12.9792ZM1 6.99696V7.00266V17.0001C1 18.657 2.34315 20.0001 4 20.0001H20C21.6569 20.0001 23 18.657 23 17.0001V7.00324L23 6.99618C22.9979 5.34114 21.6555 4.00012 20 4.00012H4C2.3442 4.00012 1.00171 5.34156 1 6.99696Z" fill="#0253B1"/>
</svg>
