<svg width="56" height="49" viewBox="0 0 56 49" fill="none" xmlns="http://www.w3.org/2000/svg">
<path d="M8.12207 42.6338V35.4952H9.29395V41.6378H12.3262V42.6338H8.12207ZM15.5977 37.126C16.0794 37.126 16.4928 37.2253 16.8379 37.4239C17.1829 37.6225 17.4482 37.904 17.6338 38.2686C17.8193 38.6332 17.9121 39.0694 17.9121 39.5772V40.1924H14.3037C14.3167 40.7165 14.4567 41.1202 14.7236 41.4034C14.9938 41.6866 15.3714 41.8282 15.8564 41.8282C16.2015 41.8282 16.5107 41.7956 16.7842 41.7305C17.0609 41.6622 17.3457 41.5629 17.6387 41.4327V42.3653C17.3685 42.4922 17.0934 42.585 16.8135 42.6436C16.5335 42.7022 16.1982 42.7315 15.8076 42.7315C15.277 42.7315 14.8099 42.629 14.4063 42.4239C14.0059 42.2156 13.6917 41.9063 13.4639 41.4962C13.2393 41.086 13.127 40.5766 13.127 39.9678C13.127 39.3624 13.2295 38.848 13.4346 38.4249C13.6396 38.0017 13.9277 37.6794 14.2988 37.4581C14.6699 37.2367 15.1029 37.126 15.5977 37.126ZM15.5977 37.9903C15.2363 37.9903 14.9434 38.1075 14.7188 38.3419C14.4974 38.5762 14.3672 38.9197 14.3281 39.3721H16.7891C16.7858 39.1019 16.7402 38.8627 16.6523 38.6544C16.5677 38.446 16.4375 38.2833 16.2617 38.1661C16.0892 38.0489 15.8678 37.9903 15.5977 37.9903ZM21.3838 42.7315C20.8727 42.7315 20.43 42.6322 20.0557 42.4337C19.6813 42.2351 19.3932 41.9307 19.1914 41.5206C18.9896 41.1104 18.8887 40.5896 18.8887 39.9581C18.8887 39.3005 18.9993 38.7634 19.2207 38.3467C19.4421 37.9301 19.748 37.6225 20.1387 37.4239C20.5326 37.2253 20.9834 37.126 21.4912 37.126C21.8135 37.126 22.1048 37.1586 22.3652 37.2237C22.6289 37.2855 22.8519 37.362 23.0342 37.4532L22.6924 38.3712C22.4938 38.2898 22.2904 38.2214 22.082 38.1661C21.8737 38.1107 21.6735 38.0831 21.4814 38.0831C21.1657 38.0831 20.902 38.1531 20.6904 38.293C20.4821 38.433 20.3258 38.6413 20.2217 38.918C20.1208 39.1947 20.0703 39.5381 20.0703 39.9483C20.0703 40.3454 20.1224 40.6807 20.2266 40.9542C20.3307 41.2243 20.4854 41.4294 20.6904 41.5694C20.8955 41.7061 21.1478 41.7745 21.4473 41.7745C21.7435 41.7745 22.0088 41.7387 22.2432 41.6671C22.4775 41.5954 22.6989 41.5027 22.9072 41.3887V42.3848C22.7021 42.502 22.4824 42.5883 22.248 42.6436C22.0137 42.7022 21.7256 42.7315 21.3838 42.7315ZM27.7949 42.6338H23.6885V41.9258L26.418 38.1124H23.8545V37.2286H27.7168V38.0098L25.041 41.7501H27.7949V42.6338ZM31.1152 37.126C31.597 37.126 32.0104 37.2253 32.3555 37.4239C32.7005 37.6225 32.9658 37.904 33.1514 38.2686C33.3369 38.6332 33.4297 39.0694 33.4297 39.5772V40.1924H29.8213C29.8343 40.7165 29.9743 41.1202 30.2412 41.4034C30.5114 41.6866 30.889 41.8282 31.374 41.8282C31.7191 41.8282 32.0283 41.7956 32.3018 41.7305C32.5785 41.6622 32.8633 41.5629 33.1562 41.4327V42.3653C32.8861 42.4922 32.611 42.585 32.3311 42.6436C32.0511 42.7022 31.7158 42.7315 31.3252 42.7315C30.7946 42.7315 30.3275 42.629 29.9238 42.4239C29.5234 42.2156 29.2093 41.9063 28.9814 41.4962C28.7568 41.086 28.6445 40.5766 28.6445 39.9678C28.6445 39.3624 28.7471 38.848 28.9521 38.4249C29.1572 38.0017 29.4453 37.6794 29.8164 37.4581C30.1875 37.2367 30.6204 37.126 31.1152 37.126ZM31.1152 37.9903C30.7539 37.9903 30.4609 38.1075 30.2363 38.3419C30.015 38.5762 29.8848 38.9197 29.8457 39.3721H32.3066C32.3034 39.1019 32.2578 38.8627 32.1699 38.6544C32.0853 38.446 31.9551 38.2833 31.7793 38.1661C31.6068 38.0489 31.3854 37.9903 31.1152 37.9903ZM37.541 37.126C38.1497 37.126 38.6234 37.2839 38.9619 37.5997C39.3037 37.9122 39.4746 38.4151 39.4746 39.1085V42.6338H38.3271V39.3233C38.3271 38.9034 38.2409 38.5893 38.0684 38.3809C37.8958 38.1693 37.6289 38.0635 37.2676 38.0635C36.7435 38.0635 36.3789 38.2247 36.1738 38.5469C35.972 38.8692 35.8711 39.3363 35.8711 39.9483V42.6338H34.7236V37.2286H35.6172L35.7783 37.961H35.8418C35.959 37.7722 36.1038 37.6176 36.2764 37.4971C36.4521 37.3734 36.6475 37.2807 36.8623 37.2188C37.0804 37.157 37.3066 37.126 37.541 37.126ZM42.2285 37.2286V42.6338H41.0811V37.2286H42.2285ZM41.6621 35.1583C41.8379 35.1583 41.9893 35.2055 42.1162 35.2999C42.2464 35.3943 42.3115 35.557 42.3115 35.7881C42.3115 36.016 42.2464 36.1788 42.1162 36.2764C41.9893 36.3708 41.8379 36.418 41.6621 36.418C41.4798 36.418 41.3252 36.3708 41.1982 36.2764C41.0745 36.1788 41.0127 36.016 41.0127 35.7881C41.0127 35.557 41.0745 35.3943 41.1982 35.2999C41.3252 35.2055 41.4798 35.1583 41.6621 35.1583ZM46.0273 37.126C46.5091 37.126 46.9225 37.2253 47.2676 37.4239C47.6126 37.6225 47.8779 37.904 48.0635 38.2686C48.249 38.6332 48.3418 39.0694 48.3418 39.5772V40.1924H44.7334C44.7464 40.7165 44.8864 41.1202 45.1533 41.4034C45.4235 41.6866 45.8011 41.8282 46.2861 41.8282C46.6312 41.8282 46.9404 41.7956 47.2139 41.7305C47.4906 41.6622 47.7754 41.5629 48.0684 41.4327V42.3653C47.7982 42.4922 47.5231 42.585 47.2432 42.6436C46.9632 42.7022 46.6279 42.7315 46.2373 42.7315C45.7067 42.7315 45.2396 42.629 44.8359 42.4239C44.4355 42.2156 44.1214 41.9063 43.8936 41.4962C43.6689 41.086 43.5566 40.5766 43.5566 39.9678C43.5566 39.3624 43.6592 38.848 43.8643 38.4249C44.0693 38.0017 44.3574 37.6794 44.7285 37.4581C45.0996 37.2367 45.5325 37.126 46.0273 37.126ZM46.0273 37.9903C45.666 37.9903 45.373 38.1075 45.1484 38.3419C44.9271 38.5762 44.7969 38.9197 44.7578 39.3721H47.2187C47.2155 39.1019 47.1699 38.8627 47.082 38.6544C46.9974 38.446 46.8672 38.2833 46.6914 38.1661C46.5189 38.0489 46.2975 37.9903 46.0273 37.9903Z" fill="#0253B1"/>
<g clip-path="url(#clip0_2_608)">
<path d="M31 8.91351H29.9747C29.9747 8.91351 30 7.13385 27.9494 7.13385C25.8987 7.13385 25.9241 8.91351 25.9241 8.91351H25C24.4477 8.91351 24 9.36123 24 9.91351V11.1339C24 11.6861 24.4477 12.1339 25 12.1339H31C31.5523 12.1339 32 11.6861 32 11.1338V9.91351C32 9.36123 31.5523 8.91351 31 8.91351Z" stroke="#0253B1" stroke-linecap="round" stroke-linejoin="round"/>
<path d="M33.6744 10.1339H35C35.5523 10.1339 36 10.5816 36 11.1339V29.1338C36 29.6861 35.5523 30.1339 35 30.1339H21C20.4477 30.1339 20 29.6861 20 29.1339V11.1339C20 10.5816 20.4477 10.1339 21 10.1339H22.5116" stroke="#0253B1" stroke-linecap="round" stroke-linejoin="round"/>
<path d="M23 23.6339H33" stroke="#0253B1" stroke-linecap="round"/>
<path d="M26 25.6339H30" stroke="#0253B1" stroke-linecap="round"/>
<path d="M24 27.6339H32" stroke="#0253B1" stroke-linecap="round"/>
<rect x="27" y="14.6339" width="2" height="6" fill="#0253B1"/>
<rect x="31" y="16.6339" width="2" height="6" transform="rotate(90 31 16.6339)" fill="#0253B1"/>
</g>
<defs>
<clipPath id="clip0_2_608">
<rect width="24" height="24" fill="white" transform="translate(16 6.63385)"/>
</clipPath>
</defs>
</svg>
