<svg width="56" height="49" viewBox="0 0 56 49" fill="none" xmlns="http://www.w3.org/2000/svg">
<g clip-path="url(#clip0_2_590)">
<path d="M27.4758 12.1339C27.4758 12.1339 22.2758 12.1339 21.4758 12.1339C20.4758 12.1339 20.4758 11.0339 20.4758 11.0339V8.13385C20.4758 8.13385 20.4758 7.13385 21.4758 7.13385C22.9758 7.13385 28.9758 7.13385 30.4758 7.13385C31.4758 7.13385 31.4758 8.13385 31.4758 8.13385V11.1339C31.4758 11.1339 31.4758 12.1339 30.4758 12.1339C30.0758 12.1339 28.9758 12.1339 28.9758 12.1339" stroke="#757575" stroke-miterlimit="10" stroke-linecap="round" stroke-linejoin="round"/>
<path d="M25.9758 30.1339C24.4758 30.1339 22.4758 30.1339 20.9758 30.1339C18.9758 30.1339 18.9758 28.1339 18.9758 28.1339V18.1339C18.9758 14.1339 21.9758 17.1339 21.9758 12.1339" stroke="#757575" stroke-miterlimit="10" stroke-linecap="round" stroke-linejoin="round"/>
<path d="M28.4758 17.6339H19.4758" stroke="#757575" stroke-miterlimit="10" stroke-linecap="round" stroke-linejoin="round"/>
<path d="M26.7619 26.6339H19.4758" stroke="#757575" stroke-miterlimit="10" stroke-linecap="round" stroke-linejoin="round"/>
<path d="M31.9758 30.1339C35.0134 30.1339 37.4758 27.6714 37.4758 24.6339C37.4758 21.5963 35.0134 19.1339 31.9758 19.1339C28.9383 19.1339 26.4758 21.5963 26.4758 24.6339C26.4758 27.6714 28.9383 30.1339 31.9758 30.1339Z" stroke="#757575" stroke-miterlimit="10" stroke-linecap="round" stroke-linejoin="round"/>
<path d="M29.7756 26.8339L34.1756 22.4339" stroke="#757575" stroke-miterlimit="10" stroke-linecap="round" stroke-linejoin="round"/>
<path d="M22.4758 7.43385V11.7339" stroke="#757575" stroke-miterlimit="10" stroke-linecap="round" stroke-linejoin="round"/>
<path d="M24.4758 7.43385V11.8339" stroke="#757575" stroke-miterlimit="10" stroke-linecap="round" stroke-linejoin="round"/>
<path d="M26.4758 7.43385V11.7339" stroke="#757575" stroke-miterlimit="10" stroke-linecap="round" stroke-linejoin="round"/>
<path d="M32.9758 18.9999V18.1339C32.9758 14.1339 29.9758 17.1339 29.9758 12.1339" stroke="#757575" stroke-miterlimit="10" stroke-linecap="round" stroke-linejoin="round"/>
<path d="M25.9758 30.1339C27.4758 30.1339 30.3097 30.1339 31.8097 30.1339" stroke="#757575" stroke-miterlimit="10" stroke-linecap="round" stroke-linejoin="round"/>
<path d="M28.4758 17.6339L28.4758 20.1339" stroke="#757575" stroke-linecap="round"/>
</g>
<path d="M19.0742 42.6338V35.4952H20.2461V41.6378H23.2783V42.6338H19.0742ZM26.5498 37.126C27.0316 37.126 27.445 37.2253 27.79 37.4239C28.1351 37.6225 28.4004 37.904 28.5859 38.2686C28.7715 38.6332 28.8643 39.0694 28.8643 39.5772V40.1924H25.2559C25.2689 40.7165 25.4089 41.1202 25.6758 41.4034C25.946 41.6866 26.3236 41.8282 26.8086 41.8282C27.1536 41.8282 27.4629 41.7956 27.7363 41.7305C28.013 41.6622 28.2979 41.5629 28.5908 41.4327V42.3653C28.3206 42.4922 28.0456 42.585 27.7656 42.6436C27.4857 42.7022 27.1504 42.7315 26.7598 42.7315C26.2292 42.7315 25.762 42.629 25.3584 42.4239C24.958 42.2156 24.6439 41.9063 24.416 41.4962C24.1914 41.086 24.0791 40.5766 24.0791 39.9678C24.0791 39.3624 24.1816 38.848 24.3867 38.4249C24.5918 38.0017 24.8799 37.6794 25.251 37.4581C25.6221 37.2367 26.055 37.126 26.5498 37.126ZM26.5498 37.9903C26.1885 37.9903 25.8955 38.1075 25.6709 38.3419C25.4495 38.5762 25.3193 38.9197 25.2803 39.3721H27.7412C27.738 39.1019 27.6924 38.8627 27.6045 38.6544C27.5199 38.446 27.3896 38.2833 27.2139 38.1661C27.0413 38.0489 26.82 37.9903 26.5498 37.9903ZM31.3057 35.0362V38.7081C31.3057 38.8741 31.2992 39.0564 31.2861 39.2549C31.2731 39.4503 31.2601 39.6342 31.2471 39.8067H31.2715C31.3561 39.6928 31.457 39.5593 31.5742 39.4063C31.6947 39.2533 31.8086 39.1199 31.916 39.0059L33.5664 37.2286H34.8848L32.7217 39.5528L35.0264 42.6338H33.6787L31.9502 40.2608L31.3057 40.8126V42.6338H30.1582V35.0362H31.3057ZM37.0381 37.2286V42.6338H35.8906V37.2286H37.0381ZM36.4717 35.1583C36.6475 35.1583 36.7988 35.2055 36.9258 35.2999C37.056 35.3943 37.1211 35.557 37.1211 35.7881C37.1211 36.016 37.056 36.1788 36.9258 36.2764C36.7988 36.3708 36.6475 36.418 36.4717 36.418C36.2894 36.418 36.1348 36.3708 36.0078 36.2764C35.8841 36.1788 35.8223 36.016 35.8223 35.7881C35.8223 35.557 35.8841 35.3943 36.0078 35.2999C36.1348 35.2055 36.2894 35.1583 36.4717 35.1583Z" fill="#757575"/>
<defs>
<clipPath id="clip0_2_590">
<rect width="24" height="24" fill="white" transform="translate(15.792 6.63385)"/>
</clipPath>
</defs>
</svg>
