<svg width="32" height="32" viewBox="0 0 32 32" fill="none" xmlns="http://www.w3.org/2000/svg">
<path d="M4.54977 13.211C4.54977 13.211 4.70143 13.2844 4.85309 13.3578C9.40286 15.3394 12.5119 19.7431 12.5119 24.8807V32H19.8673V25.9083C19.8673 18.8624 14.0285 13.211 6.74883 13.211H4.54977Z" fill="url(#paint0_linear_160_195)"/>
<path d="M0 13.211V20.3303H6.36966C8.18957 20.3303 9.78198 21.211 10.6919 22.6055C10.3128 18.6422 7.96208 15.266 4.70142 13.211H0Z" fill="url(#paint1_linear_160_195)"/>
<path d="M27.4502 18.789C27.4502 18.789 27.2986 18.7156 27.1469 18.6422C22.5971 16.6606 19.4881 12.2569 19.4881 7.11927L19.4881 5.04833e-06L12.1327 4.42594e-06L12.1327 6.09175C12.1327 13.1376 17.9715 18.789 25.2512 18.789L27.4502 18.789Z" fill="url(#paint2_linear_160_195)"/>
<path d="M32 18.789L32 11.6697L25.6303 11.6697C23.8104 11.6697 22.218 10.789 21.3081 9.3945C21.6872 13.3578 24.0379 16.734 27.2986 18.789L32 18.789Z" fill="url(#paint3_linear_160_195)"/>
<defs>
<linearGradient id="paint0_linear_160_195" x1="12.2086" y1="13.211" x2="12.2086" y2="32" gradientUnits="userSpaceOnUse">
<stop stop-color="#93C155"/>
<stop offset="1" stop-color="#00AC35"/>
</linearGradient>
<linearGradient id="paint1_linear_160_195" x1="5.34597" y1="13.211" x2="5.34597" y2="22.6055" gradientUnits="userSpaceOnUse">
<stop stop-color="#113A6F"/>
<stop offset="0.713542" stop-color="#235FA3"/>
</linearGradient>
<linearGradient id="paint2_linear_160_195" x1="19.7914" y1="18.789" x2="19.7915" y2="5.07399e-06" gradientUnits="userSpaceOnUse">
<stop offset="0.140625" stop-color="#10396E"/>
<stop offset="0.677083" stop-color="#225EA3"/>
</linearGradient>
<linearGradient id="paint3_linear_160_195" x1="26.654" y1="18.789" x2="26.654" y2="9.3945" gradientUnits="userSpaceOnUse">
<stop stop-color="#92C156"/>
<stop offset="0.796875" stop-color="#00AC35"/>
</linearGradient>
</defs>
</svg>
