<svg width="130" height="40" viewBox="0 0 130 40" fill="none" xmlns="http://www.w3.org/2000/svg">
<g clip-path="url(#clip0_82_755)">
<path d="M4.375 34.5871V20.38H0V34.3086C0 37.2336 2.36111 39.6711 5.34722 39.6711H11.7361V35.8407H5.55556C4.93056 35.8407 4.375 35.2836 4.375 34.5871Z" fill="#00AC35"/>
<path d="M22.5694 33.1246C22.5694 34.8657 21.5972 35.9104 19.9305 35.9104C18.2638 35.9104 17.2916 34.8657 17.2916 33.1246V20.38H12.7777V33.1943C12.7777 37.0246 15.7638 39.8104 19.861 39.8104C23.9583 39.8104 26.9444 37.0246 26.9444 33.1943V20.38H22.4999V33.1246H22.5694Z" fill="#00AC35"/>
<path d="M44.4445 20.38H39.4445L36.6667 25.7425L33.8889 20.38H28.8889L34.2361 29.7818L28.5417 39.6711H33.5417L36.6667 33.8211L39.7917 39.6711H44.8611L39.0972 29.7818L44.4445 20.38Z" fill="#00AC35"/>
<path d="M55.5554 30.3389L51.2499 20.38H47.1526V39.6711H51.5276V29.0157L54.0971 36.1193H57.0138L59.5832 29.0157V39.6711H63.9582V20.38H59.7915L55.5554 30.3389Z" fill="#00AC35"/>
<path d="M67.2917 36.2586C67.2917 38.1389 68.8195 39.6014 70.6251 39.6014C70.6251 39.6014 70.6251 39.6014 70.6945 39.6014H79.7917V35.7711H71.6667V31.5229H78.6112V27.9014H71.6667V24.2104H79.7917V20.38H67.2917V36.2586Z" fill="#00AC35"/>
<path d="M96.1806 30.1996V29.5729V28.9461C96.1806 26.5086 96.1806 24.2104 94.2361 22.2604C93.0556 21.0068 91.3194 20.38 89.2361 20.38H82.4305V39.6711H89.2361C91.3194 39.6711 93.0556 39.0443 94.2361 37.8604C96.1806 35.9104 96.1806 32.6371 96.1806 30.1996ZM91.6667 32.9854C91.5972 33.8907 91.3889 34.5871 91.1111 34.9354C90.5555 35.5621 89.9306 35.8407 88.8889 35.8407H86.8055V24.28H88.9583C89.9306 24.28 90.625 24.5586 91.1806 25.1854C91.4583 25.5336 91.5972 25.8818 91.6667 26.5086C91.7361 27.205 91.8056 28.2496 91.8056 29.5729C91.8056 30.8264 91.7361 32.08 91.6667 32.9854Z" fill="#00AC35"/>
</g>
<path d="M104.861 13.4157C104.861 13.4157 105 13.4854 105.139 13.555C109.306 15.4354 112.153 19.6139 112.153 24.4889V31.2443H118.889V25.4639C118.889 18.7782 113.542 13.4157 106.875 13.4157H104.861Z" fill="url(#paint0_linear_82_755)"/>
<path d="M100.694 13.4157V20.1711H106.528C108.194 20.1711 109.653 21.0068 110.486 22.33C110.139 18.5693 107.986 15.3657 105 13.4157H100.694Z" fill="url(#paint1_linear_82_755)"/>
<path d="M125.833 18.7086C125.833 18.7086 125.694 18.6389 125.556 18.5693C121.389 16.6889 118.542 12.5103 118.542 7.63535L118.542 0.879997L111.806 0.879996L111.806 6.66035C111.806 13.3461 117.153 18.7086 123.819 18.7086L125.833 18.7086Z" fill="url(#paint2_linear_82_755)"/>
<path d="M130 18.7086L130 11.9532L124.167 11.9532C122.5 11.9532 121.042 11.1175 120.208 9.79428C120.556 13.555 122.708 16.7586 125.694 18.7086L130 18.7086Z" fill="url(#paint3_linear_82_755)"/>
<defs>
<linearGradient id="paint0_linear_82_755" x1="111.875" y1="13.4157" x2="111.875" y2="31.2443" gradientUnits="userSpaceOnUse">
<stop stop-color="#93C155"/>
<stop offset="1" stop-color="#00AC35"/>
</linearGradient>
<linearGradient id="paint1_linear_82_755" x1="105.59" y1="13.4157" x2="105.59" y2="22.33" gradientUnits="userSpaceOnUse">
<stop stop-color="#113A6F"/>
<stop offset="0.713542" stop-color="#235FA3"/>
</linearGradient>
<linearGradient id="paint2_linear_82_755" x1="118.819" y1="18.7086" x2="118.819" y2="0.879997" gradientUnits="userSpaceOnUse">
<stop offset="0.140625" stop-color="#10396E"/>
<stop offset="0.677083" stop-color="#225EA3"/>
</linearGradient>
<linearGradient id="paint3_linear_82_755" x1="125.104" y1="18.7086" x2="125.104" y2="9.79428" gradientUnits="userSpaceOnUse">
<stop stop-color="#92C156"/>
<stop offset="0.796875" stop-color="#00AC35"/>
</linearGradient>
<clipPath id="clip0_82_755">
<rect width="96.1806" height="19.5" fill="white" transform="translate(0 20.38)"/>
</clipPath>
</defs>
</svg>
