<svg width="40" height="36" viewBox="0 0 40 36" fill="none" xmlns="http://www.w3.org/2000/svg">
<path d="M15.2632 7.26318L15.4775 9.80103C15.6752 12.1423 17.2502 14.1439 19.4776 14.8918V14.8918C19.8389 15.0132 20.2307 15.0134 20.592 14.8921V14.8921C22.8185 14.1445 24.3791 12.134 24.5511 9.79165L24.7369 7.26318" stroke="#0253B1" stroke-linecap="round" stroke-linejoin="round"/>
<path d="M23.0052 13.5093L23.1585 15.9349L25.0748 16.3838C28.0361 17.0776 30.3479 19.3905 31.0401 22.3522L31.25 23.2503" stroke="#0253B1" stroke-linecap="round" stroke-linejoin="round"/>
<path d="M17.0038 13.4395L16.8227 15.9348L14.9212 16.3815C11.962 17.0767 9.6525 19.3889 8.96069 22.3488L8.75 23.2502" stroke="#0253B1" stroke-linecap="round" stroke-linejoin="round"/>
<path d="M17 16L17.2886 16.68C17.7566 17.7824 18.8382 18.4983 20.0358 18.4983V18.4983C21.3709 18.4983 22.5436 17.6116 22.9074 16.3271L23 16" stroke="#0253B1" stroke-linecap="round" stroke-linejoin="round"/>
<path d="M24.7367 7.26316C25.9209 3.71053 23.27 0.75 19.9999 0.75C16.7297 0.75 14.0787 3.71053 15.263 7.26316" stroke="#0253B1" stroke-linecap="round" stroke-linejoin="round"/>
<path d="M24.7369 7.26314C20 7.26314 18.8158 4.89471 18.8158 4.89471C18.8158 4.89471 17.6316 7.26314 15.2632 7.26314" stroke="#0253B1" stroke-linecap="round" stroke-linejoin="round"/>
<path d="M8.75354 23.2646C8.75354 23.2646 22.2391 23.2595 31.2212 23.2595" stroke="#0253B1" stroke-linecap="round"/>
</svg>
