<svg width="48" height="48" viewBox="0 0 48 48" fill="none" xmlns="http://www.w3.org/2000/svg">
<circle cx="24" cy="24" r="23.5" stroke="#757575"/>
<path d="M17.8125 14.85L18.0166 17.7889C18.233 20.9052 20.3371 23.5779 23.3123 24.53V24.53C23.7587 24.6728 24.2399 24.6733 24.6863 24.5304V24.5304C27.6586 23.5793 29.7324 20.8883 29.8947 17.7717L30 15.75" stroke="#757575"/>
<path d="M24 7.125C26.625 7.125 30.625 8.625 32.625 14.625C34.425 20.025 34.125 24.375 33.75 26.25M30 15.75C28.5 15.875 24.45 15.375 21.75 12.375C21.125 13.25 19.125 15 17.625 15" stroke="#757575"/>
<path d="M24.2844 7.125C21.6594 7.125 17.6594 8.625 15.6594 14.625C13.8594 20.025 14.2499 24.375 14.6249 26.25" stroke="#757575"/>
<path d="M28.5 21.75L28.875 25.125L32.3902 25.9239C35.2998 26.5852 37.5995 28.8106 38.3559 31.6969L38.9062 33.7969" stroke="#757575"/>
<path d="M19.5 21.75L19.125 25.125L15.5316 25.9325C12.6137 26.5882 10.3051 28.8168 9.54696 31.7098L9 33.7969" stroke="#757575"/>
<path d="M19.125 25.125L20.3631 28.2203C20.9743 29.7482 22.454 30.75 24.0995 30.75V30.75C25.8317 30.75 27.3695 29.6416 27.9172 27.9984L28.875 25.125" stroke="#757575"/>
<path d="M28.5 32.25H33" stroke="#757575"/>
</svg>
