<svg width="56" height="49" viewBox="0 0 56 49" fill="none" xmlns="http://www.w3.org/2000/svg">
<path d="M21.6133 35.4952L19.748 42.6338H18.4688L17.2773 38.3565C17.248 38.2523 17.2155 38.1286 17.1797 37.9854C17.1439 37.8422 17.1081 37.6957 17.0723 37.546C17.0397 37.3962 17.0104 37.2595 16.9844 37.1358C16.9616 37.0088 16.9453 36.9112 16.9355 36.8428C16.929 36.9112 16.9144 37.0072 16.8916 37.1309C16.8688 37.2546 16.8411 37.3913 16.8086 37.5411C16.7793 37.6876 16.7467 37.834 16.7109 37.9805C16.6751 38.1238 16.6426 38.2507 16.6133 38.3614L15.4414 42.6338H14.167L12.3066 35.4952H13.4834L14.5137 39.6797C14.5462 39.8132 14.5788 39.9581 14.6113 40.1143C14.6471 40.2673 14.6797 40.4219 14.709 40.5782C14.7415 40.7344 14.7708 40.8874 14.7969 41.0372C14.8229 41.1837 14.8441 41.3171 14.8604 41.4376C14.8766 41.3139 14.8978 41.1771 14.9238 41.0274C14.9499 40.8744 14.9775 40.7198 15.0068 40.5635C15.0394 40.404 15.0719 40.251 15.1045 40.1046C15.1403 39.9581 15.1761 39.8262 15.2119 39.709L16.374 35.4952H17.5166L18.7031 39.7237C18.7389 39.8441 18.7731 39.9792 18.8057 40.129C18.8415 40.2787 18.8757 40.4317 18.9082 40.588C18.9408 40.7442 18.9701 40.8956 18.9961 41.0421C19.0221 41.1885 19.0433 41.3204 19.0596 41.4376C19.0824 41.2781 19.1117 41.0958 19.1475 40.8907C19.1833 40.6856 19.224 40.4773 19.2695 40.2657C19.3151 40.0541 19.3607 39.8588 19.4063 39.6797L20.4316 35.4952H21.6133ZM23.6543 37.2286V42.6338H22.5068V37.2286H23.6543ZM23.0879 35.1583C23.2637 35.1583 23.415 35.2055 23.542 35.2999C23.6722 35.3943 23.7373 35.557 23.7373 35.7881C23.7373 36.016 23.6722 36.1788 23.542 36.2764C23.415 36.3708 23.2637 36.418 23.0879 36.418C22.9056 36.418 22.751 36.3708 22.624 36.2764C22.5003 36.1788 22.4385 36.016 22.4385 35.7881C22.4385 35.557 22.5003 35.3943 22.624 35.2999C22.751 35.2055 22.9056 35.1583 23.0879 35.1583ZM28.4688 43.7764C28.4688 43.9197 28.5078 44.0271 28.5859 44.0987C28.6641 44.1736 28.7682 44.211 28.8984 44.211C29.0026 44.211 29.1003 44.2012 29.1914 44.1817C29.2826 44.1654 29.3574 44.1491 29.416 44.1329V44.8311C29.3184 44.8572 29.2158 44.8799 29.1084 44.8995C29.001 44.9223 28.8757 44.9337 28.7324 44.9337C28.3743 44.9337 28.0993 44.8393 27.9072 44.6505C27.7152 44.4649 27.6191 44.2175 27.6191 43.9083C27.6191 43.7162 27.6663 43.5307 27.7607 43.3516C27.8584 43.1758 27.9854 43.0115 28.1416 42.8585C28.2979 42.7087 28.4622 42.5785 28.6348 42.4678L29.4893 42.3653C29.2256 42.5866 29.0189 42.7787 28.8691 42.9415C28.7227 43.1075 28.6185 43.2556 28.5566 43.3858C28.498 43.5193 28.4688 43.6495 28.4688 43.7764ZM27.4531 37.126C27.9349 37.126 28.3483 37.2253 28.6934 37.4239C29.0384 37.6225 29.3037 37.904 29.4893 38.2686C29.6748 38.6332 29.7676 39.0694 29.7676 39.5772V40.1924H26.1592C26.1722 40.7165 26.3122 41.1202 26.5791 41.4034C26.8493 41.6866 27.2269 41.8282 27.7119 41.8282C28.057 41.8282 28.3662 41.7956 28.6396 41.7305C28.9163 41.6622 29.2012 41.5629 29.4941 41.4327V42.3653C29.224 42.4922 28.9489 42.585 28.6689 42.6436C28.389 42.7022 28.0537 42.7315 27.6631 42.7315C27.1325 42.7315 26.6654 42.629 26.2617 42.4239C25.8613 42.2156 25.5472 41.9063 25.3193 41.4962C25.0947 41.086 24.9824 40.5766 24.9824 39.9678C24.9824 39.3624 25.085 38.848 25.29 38.4249C25.4951 38.0017 25.7832 37.6794 26.1543 37.4581C26.5254 37.2367 26.9583 37.126 27.4531 37.126ZM27.4531 37.9903C27.0918 37.9903 26.7988 38.1075 26.5742 38.3419C26.3529 38.5762 26.2227 38.9197 26.1836 39.3721H28.6445C28.6413 39.1019 28.5957 38.8627 28.5078 38.6544C28.4232 38.446 28.293 38.2833 28.1172 38.1661C27.9447 38.0489 27.7233 37.9903 27.4531 37.9903ZM33.2393 42.7315C32.7282 42.7315 32.2855 42.6322 31.9111 42.4337C31.5368 42.2351 31.2487 41.9307 31.0469 41.5206C30.8451 41.1104 30.7441 40.5896 30.7441 39.9581C30.7441 39.3005 30.8548 38.7634 31.0762 38.3467C31.2975 37.9301 31.6035 37.6225 31.9941 37.4239C32.388 37.2253 32.8389 37.126 33.3467 37.126C33.6689 37.126 33.9603 37.1586 34.2207 37.2237C34.4844 37.2855 34.7074 37.362 34.8896 37.4532L34.5479 38.3712C34.3493 38.2898 34.1458 38.2214 33.9375 38.1661C33.7292 38.1107 33.529 38.0831 33.3369 38.0831C33.0212 38.0831 32.7575 38.1531 32.5459 38.293C32.3376 38.433 32.1813 38.6413 32.0771 38.918C31.9762 39.1947 31.9258 39.5381 31.9258 39.9483C31.9258 40.3454 31.9779 40.6807 32.082 40.9542C32.1862 41.2243 32.3408 41.4294 32.5459 41.5694C32.751 41.7061 33.0033 41.7745 33.3027 41.7745C33.599 41.7745 33.8643 41.7387 34.0986 41.6671C34.333 41.5954 34.5544 41.5027 34.7627 41.3887V42.3848C34.5576 42.502 34.3379 42.5883 34.1035 42.6436C33.8691 42.7022 33.5811 42.7315 33.2393 42.7315ZM38.1855 37.126C38.6673 37.126 39.0807 37.2253 39.4258 37.4239C39.7708 37.6225 40.0361 37.904 40.2217 38.2686C40.4072 38.6332 40.5 39.0694 40.5 39.5772V40.1924H36.8916C36.9046 40.7165 37.0446 41.1202 37.3115 41.4034C37.5817 41.6866 37.9593 41.8282 38.4443 41.8282C38.7894 41.8282 39.0986 41.7956 39.3721 41.7305C39.6488 41.6622 39.9336 41.5629 40.2266 41.4327V42.3653C39.9564 42.4922 39.6813 42.585 39.4014 42.6436C39.1214 42.7022 38.7861 42.7315 38.3955 42.7315C37.8649 42.7315 37.3978 42.629 36.9941 42.4239C36.5937 42.2156 36.2796 41.9063 36.0518 41.4962C35.8271 41.086 35.7148 40.5766 35.7148 39.9678C35.7148 39.3624 35.8174 38.848 36.0225 38.4249C36.2275 38.0017 36.5156 37.6794 36.8867 37.4581C37.2578 37.2367 37.6908 37.126 38.1855 37.126ZM38.1855 37.9903C37.8242 37.9903 37.5312 38.1075 37.3066 38.3419C37.0853 38.5762 36.9551 38.9197 36.916 39.3721H39.377C39.3737 39.1019 39.3281 38.8627 39.2402 38.6544C39.1556 38.446 39.0254 38.2833 38.8496 38.1661C38.6771 38.0489 38.4557 37.9903 38.1855 37.9903ZM41.252 45.0362C41.0827 45.0362 40.9215 45.0232 40.7686 44.9971C40.6156 44.9743 40.487 44.9467 40.3828 44.9141V43.9962C40.4935 44.0287 40.6009 44.0531 40.7051 44.0694C40.8092 44.0857 40.9281 44.0938 41.0615 44.0938C41.2731 44.0938 41.4473 44.0352 41.584 43.918C41.724 43.8008 41.7939 43.5779 41.7939 43.2491V37.2286H42.9414V43.3516C42.9414 43.6804 42.8828 43.9717 42.7656 44.2256C42.6517 44.4796 42.4694 44.6781 42.2187 44.8213C41.9714 44.9646 41.6491 45.0362 41.252 45.0362ZM41.7256 35.7881C41.7256 35.557 41.7874 35.3943 41.9111 35.2999C42.0381 35.2055 42.1927 35.1583 42.375 35.1583C42.5508 35.1583 42.7021 35.2055 42.8291 35.2999C42.9593 35.3943 43.0244 35.557 43.0244 35.7881C43.0244 36.016 42.9593 36.1788 42.8291 36.2764C42.7021 36.3708 42.5508 36.418 42.375 36.418C42.1927 36.418 42.0381 36.3708 41.9111 36.2764C41.7874 36.1788 41.7256 36.016 41.7256 35.7881Z" fill="#757575"/>
<path d="M18.0001 18.6339C18.0001 18.6339 29.6531 18.6339 38.0001 18.6339" stroke="#757575" stroke-width="1.5" stroke-linecap="round"/>
<path d="M18.0001 25.6339C18.0001 25.6339 29.6531 25.6339 38.0001 25.6339" stroke="#757575" stroke-width="1.5" stroke-linecap="round"/>
<path d="M18.0001 11.6339C18.0001 11.6339 29.6531 11.6339 38.0001 11.6339" stroke="#757575" stroke-width="1.5" stroke-linecap="round"/>
</svg>
